<svg height="69" viewBox="0 0 162 69" width="162" xmlns="http://www.w3.org/2000/svg"><path d="m0 0h162v69h-162z" fill="#fff"/><g fill-rule="evenodd" transform="translate(33.174 23.087)"><path d="m186.575 196.419c-5.559 4.1-13.615 6.283-20.552 6.283a37.19 37.19 0 0 1 -25.107-9.581c-.52-.471-.054-1.112.57-.745a50.532 50.532 0 0 0 25.12 6.662 49.951 49.951 0 0 0 19.161-3.918c.941-.4 1.728.616.808 1.3" fill="#f90" transform="translate(-127.234 -173.876)"/><path d="m578.841 184.322c-.708-.908-4.7-.429-6.487-.217-.545.067-.629-.408-.137-.749 3.177-2.236 8.39-1.591 9-.841s-.158 5.979-3.144 8.473c-.458.383-.9.179-.691-.329.67-1.674 2.173-5.425 1.461-6.337" fill="#f90" transform="translate(-517.189 -164.424)"/><path d="m572.791 7.163v-2.173a.536.536 0 0 1 .55-.55h9.731a.542.542 0 0 1 .562.55v1.861a3.061 3.061 0 0 1 -.733 1.366l-5.042 7.2a10.744 10.744 0 0 1 5.55 1.191.99.99 0 0 1 .516.845v2.319c0 .316-.35.687-.716.5a11.209 11.209 0 0 0 -10.28.017c-.337.183-.691-.183-.691-.5v-2.2a2.628 2.628 0 0 1 .358-1.495l5.842-8.377h-5.084a.538.538 0 0 1 -.562-.545" transform="translate(-517.501 -4.015)"/><path d="m173.95 18.087h-2.96a.559.559 0 0 1 -.529-.5v-15.197a.556.556 0 0 1 .57-.545h2.761a.558.558 0 0 1 .537.508v1.985h.054a3.908 3.908 0 0 1 3.9-2.815c1.853 0 3.01.9 3.843 2.815a4.372 4.372 0 0 1 7.516-1.153c.937 1.278.745 3.135.745 4.763v9.589a.559.559 0 0 1 -.57.55h-2.956a.563.563 0 0 1 -.533-.55v-8.052a19.017 19.017 0 0 0 -.083-2.848 1.542 1.542 0 0 0 -1.74-1.307 1.967 1.967 0 0 0 -1.77 1.245 9.2 9.2 0 0 0 -.275 2.91v8.053a.559.559 0 0 1 -.57.55h-2.956a.56.56 0 0 1 -.533-.55v-8.053c0-1.695.279-4.189-1.824-4.189-2.128 0-2.044 2.432-2.044 4.189v8.053a.559.559 0 0 1 -.57.55" transform="translate(-154.156 -1.378)"/><path d="m715.973 1.524c4.393 0 6.77 3.772 6.77 8.569 0 4.634-2.627 8.311-6.77 8.311-4.313 0-6.662-3.772-6.662-8.473 0-4.73 2.378-8.407 6.662-8.407m.025 3.1c-2.182 0-2.319 2.973-2.319 4.826s-.029 5.821 2.294 5.821c2.294 0 2.4-3.2 2.4-5.146a14.047 14.047 0 0 0 -.441-4.03 1.852 1.852 0 0 0 -1.932-1.469" transform="translate(-641.463 -1.378)"/><path d="m876.336 18.087h-2.948a.563.563 0 0 1 -.533-.55v-15.2a.56.56 0 0 1 .57-.5h2.744a.567.567 0 0 1 .529.425v2.33h.054c.829-2.078 1.99-3.069 4.035-3.069a3.884 3.884 0 0 1 3.456 1.79c.775 1.216.775 3.26.775 4.73v9.564a.569.569 0 0 1 -.571.479h-2.969a.561.561 0 0 1 -.525-.479v-8.251c0-1.661.192-4.093-1.853-4.093a1.935 1.935 0 0 0 -1.711 1.216 6.722 6.722 0 0 0 -.47 2.877v8.182a.569.569 0 0 1 -.579.55" transform="translate(-789.36 -1.378)"/><path d="m414.46 9.452a5.79 5.79 0 0 1 -.554 3.139 2.4 2.4 0 0 1 -2.049 1.345c-1.137 0-1.8-.866-1.8-2.144 0-2.523 2.261-2.981 4.405-2.981v.641m2.985 7.216a.618.618 0 0 1 -.7.071 7.217 7.217 0 0 1 -1.7-1.974 5.862 5.862 0 0 1 -4.88 2.153c-2.494 0-4.43-1.536-4.43-4.613a5.024 5.024 0 0 1 3.156-4.838 20.513 20.513 0 0 1 5.567-1.028v-.385a3.776 3.776 0 0 0 -.36-2.144 1.971 1.971 0 0 0 -1.661-.77 2.252 2.252 0 0 0 -2.378 1.778.619.619 0 0 1 -.516.541l-2.869-.308a.522.522 0 0 1 -.441-.62c.658-3.481 3.806-4.53 6.62-4.53a6.712 6.712 0 0 1 4.459 1.474c1.441 1.345 1.3 3.139 1.3 5.092v4.613a4.049 4.049 0 0 0 1.116 2.744.56.56 0 0 1 -.013.787c-.6.5-1.678 1.441-2.269 1.965v-.008" transform="translate(-366.927)"/><path d="m8.723 9.452a5.791 5.791 0 0 1 -.554 3.139 2.4 2.4 0 0 1 -2.049 1.345c-1.137 0-1.8-.866-1.8-2.144 0-2.523 2.261-2.981 4.4-2.981v.641m2.985 7.216a.618.618 0 0 1 -.7.071 7.289 7.289 0 0 1 -1.7-1.974 5.857 5.857 0 0 1 -4.88 2.153c-2.485-.001-4.425-1.537-4.425-4.618a5.03 5.03 0 0 1 3.156-4.834 20.513 20.513 0 0 1 5.567-1.029v-.383a3.809 3.809 0 0 0 -.358-2.144 1.981 1.981 0 0 0 -1.665-.77 2.257 2.257 0 0 0 -2.378 1.778.619.619 0 0 1 -.512.541l-2.873-.308a.524.524 0 0 1 -.437-.621c.658-3.481 3.8-4.53 6.616-4.53a6.712 6.712 0 0 1 4.459 1.474c1.441 1.345 1.3 3.139 1.3 5.092v4.614a4.049 4.049 0 0 0 1.116 2.744.556.556 0 0 1 -.008.787c-.6.5-1.678 1.441-2.269 1.965l-.008-.008"/></g></svg>